# Blender 3.4.1
# www.blender.org
mtllib n642.mtl
o N_square
v -0.547476 -0.550000 0.552480
v -0.247488 -0.550000 0.551115
v -0.551115 0.550000 -0.247488
v -0.548841 0.550000 0.252492
v 0.552479 0.550000 0.547476
v 0.251127 0.550000 0.248853
v 0.547476 0.550000 -0.552480
v -0.251127 -0.550000 -0.248853
v 0.251127 -0.550000 0.248853
v 0.551115 0.550000 0.247488
v -0.548841 -0.000000 0.252492
v -0.251127 0.550000 -0.248853
v 0.548840 0.550000 -0.252492
v -0.551115 0.000000 -0.247488
v -0.547476 -0.000000 0.552480
v 0.552479 -0.000000 0.547476
v 0.252492 -0.000000 0.548840
v 0.552479 -0.550000 0.547476
v -0.247488 -0.000000 0.551115
v 0.252492 -0.550000 0.548840
v 0.547476 0.000000 -0.552480
v 0.247488 -0.550000 -0.551115
v 0.547476 -0.550000 -0.552480
v 0.247488 0.000000 -0.551115
v -0.248853 0.550000 0.251127
v -0.248853 -0.000000 0.251127
v 0.248852 0.550000 -0.251127
v 0.252492 0.550000 0.548840
v 0.251127 -0.000000 0.248853
v -0.252492 0.550000 -0.548840
v -0.252492 0.000000 -0.548840
v 0.548840 0.000000 -0.252492
v -0.552480 0.550000 -0.547476
v 0.248852 0.000000 -0.251127
v -0.252492 -0.550000 -0.548840
v -0.547476 0.550000 0.552480
v -0.548841 -0.550000 0.252492
v -0.551115 -0.550000 -0.247488
v -0.552480 -0.550000 -0.547476
v -0.552480 0.000000 -0.547476
v 0.548840 -0.550000 -0.252492
v 0.551115 -0.000000 0.247488
v 0.551115 -0.550000 0.247488
v -0.248853 -0.550000 0.251127
v 0.248852 -0.550000 -0.251127
v -0.247488 0.550000 0.551115
v 0.247488 0.550000 -0.551115
v -0.251127 0.000000 -0.248853
vn -0.6249 -0.7129 0.3182
vn 0.5747 -0.5774 -0.5800
vn 0.6278 -0.7129 0.3125
vn -0.5800 -0.5774 -0.5747
vn -0.5747 -0.5774 0.5800
vn 0.6249 -0.7129 -0.3182
vn 0.5800 -0.5774 0.5747
vn -0.6278 -0.7129 -0.3125
vn -0.5800 0.5774 -0.5747
vn 0.6278 0.7129 0.3125
vn 0.5747 0.5774 -0.5800
vn -0.6249 0.7129 0.3182
vn 0.3182 0.7129 0.6249
vn 0.3125 0.7129 -0.6278
vn -0.5747 0.5774 0.5800
vn -0.6278 0.7129 -0.3125
vn 0.5800 0.5774 0.5747
vn 0.6249 0.7129 -0.3182
vn -0.3182 0.7129 -0.6249
vn -0.3125 0.7129 0.6278
vn 0.3125 -0.7129 -0.6278
vn -0.5800 -0.5773 -0.5747
vn 0.3182 -0.7129 0.6249
vn -0.3125 -0.7129 0.6278
vn -0.3182 -0.7129 -0.6249
vn -0.7039 -0.0000 0.7103
vn 0.9801 0.1867 0.0677
vn 0.7039 -0.0000 -0.7103
vn -0.9801 0.1867 -0.0677
vn -0.7103 -0.0000 -0.7039
vn 0.9794 -0.1867 -0.0766
vn 0.7103 -0.0000 0.7039
vn -0.9794 -0.1867 0.0766
vn 0.0766 -0.1867 0.9794
vn -0.0677 0.1867 0.9801
vn 0.0677 0.1867 -0.9801
vn -0.0766 -0.1867 -0.9794
vt 0.061994 -0.099346
vt 0.172108 0.119910
vt 0.050494 0.124021
vt -0.008182 0.173764
vt 0.118512 0.259791
vt 0.027326 0.153391
vt 0.044735 0.293670
vt 0.143550 0.055554
vt -0.008816 0.120505
vt 0.084240 0.315813
vt 0.020035 0.101225
vt 0.107408 0.288084
vt 0.142917 0.201959
vt 0.033484 0.037673
vt 0.073574 0.048915
vt 0.184551 0.142469
vt 0.132800 0.110521
vt 0.163919 0.089245
vt 0.148303 0.081893
vt 0.083437 -0.079649
vt 0.061161 0.220555
vt -0.037373 0.099138
vt 0.072741 0.129132
vt -0.013568 0.151809
vt 0.030211 0.279414
vt 0.051610 0.173609
vt 0.104523 0.131320
vt 0.073255 0.104018
vt -0.046047 0.153460
vt 0.061479 0.300158
vt 0.001935 0.200932
vt 0.114700 0.218484
vt 0.016223 0.165076
vt 0.083125 0.003173
vt 0.051297 0.120096
vt 0.090000 0.118981
vt 0.014940 0.014210
vt 0.072396 -0.083429
vt -0.029184 0.114512
vt -0.049816 0.127000
vt 0.119795 0.132749
vt 0.101251 0.175341
vt 0.062339 0.138486
vt 0.081045 0.128424
vt 0.053690 -0.080679
vt 0.122872 0.191643
vt 0.011863 0.228155
vt 0.180782 0.149118
s 1
usemtl Material.004_699E158_c.png
f 45/45/1 23/23/2 41/41/3
f 45/45/1 22/22/4 23/23/2
f 1/1/5 44/44/6 2/2/7
f 1/1/5 37/37/8 44/44/6
f 33/33/9 12/12/10 30/30/11
f 3/3/12 12/12/10 33/33/9
f 4/4/9 46/46/13 25/25/14
f 4/4/9 36/36/15 46/46/13
f 6/6/16 5/5/17 10/10/18
f 28/28/15 5/5/17 6/6/16
f 47/47/19 13/13/17 7/7/11
f 47/47/19 27/27/20 13/13/17
f 35/35/21 38/38/5 39/39/22
f 35/35/21 8/8/23 38/38/5
f 20/20/24 43/43/2 18/18/7
f 20/20/24 9/9/25 43/43/2
usemtl Material.003_699E158_d.png
f 6/6/16 10/10/18 34/34/26
f 34/34/26 10/10/18 32/32/27
f 26/26/28 12/12/10 11/11/29
f 11/11/29 12/12/10 3/3/12
usemtl Material.003_699E158_c.bmp
f 29/29/30 43/43/2 9/9/25
f 42/42/31 43/43/2 29/29/30
f 26/26/28 4/4/9 25/25/14
f 11/11/29 4/4/9 26/26/28
f 34/34/26 13/13/17 27/27/20
f 32/32/27 13/13/17 34/34/26
f 38/38/5 48/48/32 14/14/33
f 38/38/5 8/8/23 48/48/32
f 36/36/15 19/19/34 46/46/13
f 15/15/26 19/19/34 36/36/15
f 17/17/35 18/18/7 16/16/32
f 17/17/35 20/20/24 18/18/7
f 39/39/22 31/31/36 35/35/21
f 40/40/30 31/31/36 39/39/22
f 24/24/37 7/7/11 21/21/28
f 24/24/37 47/47/19 7/7/11
f 15/15/26 2/2/7 19/19/34
f 15/15/26 1/1/5 2/2/7
f 16/16/32 28/28/15 17/17/35
f 16/16/32 5/5/17 28/28/15
f 20/20/24 46/46/13 19/19/34
f 20/20/24 17/17/35 46/46/13
f 21/21/28 22/22/4 24/24/37
f 21/21/28 23/23/2 22/22/4
f 47/47/19 35/35/21 31/31/36
f 47/47/19 24/24/37 35/35/21
f 30/30/11 40/40/30 33/33/9
f 30/30/11 31/31/36 40/40/30
f 9/9/25 25/25/14 29/29/30
f 9/9/25 26/26/28 25/25/14
f 8/8/23 27/27/20 48/48/32
f 8/8/23 34/34/26 27/27/20
usemtl Material.002_699E158_c.bmp
f 34/34/26 22/22/4 45/45/1
f 24/24/37 22/22/4 34/34/26
usemtl Material.002_699E158_a.png
f 29/29/30 28/28/15 6/6/16
f 17/17/35 28/28/15 29/29/30
f 26/26/28 2/2/7 44/44/6
f 19/19/34 2/2/7 26/26/28
f 30/30/11 48/48/32 31/31/36
f 30/30/11 12/12/10 48/48/32
f 5/5/17 42/42/31 10/10/18
f 16/16/32 42/42/31 5/5/17
f 32/32/27 23/23/2 21/21/28
f 32/32/27 41/41/3 23/23/2
f 1/1/5 11/11/29 37/37/8
f 11/11/29 1/1/5 15/15/26
f 14/14/33 33/33/9 40/40/30
f 14/14/33 3/3/12 33/33/9
f 15/15/26 4/4/9 11/11/29
f 15/15/26 36/36/15 4/4/9
f 37/37/8 3/3/12 14/14/33
f 3/3/12 37/37/8 11/11/29
f 38/38/5 40/40/30 39/39/22
f 38/38/5 14/14/33 40/40/30
f 21/21/28 13/13/17 32/32/27
f 21/21/28 7/7/11 13/13/17
f 10/10/18 41/41/3 32/32/27
f 41/41/3 10/10/18 42/42/31
f 43/43/2 16/16/32 18/18/7
f 42/42/31 16/16/32 43/43/2
f 48/48/32 12/12/10 44/44/6
f 44/44/6 12/12/10 26/26/28
f 29/29/30 6/6/16 45/45/1
f 45/45/1 6/6/16 34/34/26
usemtl Material.002_699E158_d.png
f 34/34/26 35/35/21 24/24/37
f 8/8/23 35/35/21 34/34/26
f 26/26/28 20/20/24 19/19/34
f 9/9/25 20/20/24 26/26/28
usemtl Material.001_699E158_d.png
f 25/25/14 46/46/13 29/29/30
f 47/47/19 48/48/32 27/27/20
f 29/29/30 46/46/13 17/17/35
f 29/29/30 41/41/3 42/42/31
f 31/31/36 48/48/32 47/47/19
f 48/48/32 37/37/8 14/14/33
f 45/45/1 41/41/3 29/29/30
f 44/44/6 37/37/8 48/48/32
